<svg xmlns="http://www.w3.org/2000/svg" width="24" height="24" fill="none" viewBox="0 0 24 24" id="carrot">
  <path fill="#000" fill-rule="evenodd" d="M14.5376 1.26465C15.6427 1.37736 16.5522 2.1535 16.8667 3.18945C17.9409 2.3902 19.463 2.47689 20.437 3.4541L20.4683 3.48535C21.4583 4.47933 21.5317 6.04211 20.6929 7.12305C21.8746 7.42288 22.7505 8.49583 22.7505 9.77539C22.7501 11.2866 21.5293 12.5115 20.0239 12.5117H17.1343C17.6679 14.561 16.7985 16.8608 14.7475 17.9395L6.36278 22.3486C5.00936 23.0603 3.3523 22.8063 2.27196 21.7217C1.19183 20.637 0.939048 18.9729 1.64794 17.6143L6.03954 9.19727C6.07006 9.13878 6.1028 9.08195 6.13524 9.02539C6.14012 9.01748 6.14372 9.00874 6.14892 9.00098C7.27987 7.05527 9.53694 6.25961 11.5337 6.8252V3.98828L11.5327 3.9873C11.533 2.4759 12.7541 1.25039 14.2593 1.25L14.5376 1.26465ZM12.5327 9.10254C11.1494 7.71417 8.92201 7.88688 7.73974 9.3291L10.4634 12.0635C10.7557 12.3569 10.7557 12.8335 10.4634 13.127C10.171 13.42 9.69697 13.4203 9.40477 13.127L6.95946 10.6719L2.97411 18.3125C2.5691 19.0888 2.71345 20.0394 3.33056 20.6592C3.94793 21.2789 4.89509 21.4242 5.66845 21.0176L7.66063 19.9688L6.55224 18.8564C6.2602 18.563 6.26003 18.0873 6.55224 17.7939C6.84451 17.5005 7.3185 17.5006 7.61083 17.7939L9.05028 19.2383L14.0532 16.6084C15.991 15.589 16.3886 12.9753 14.8423 11.4219L12.5327 9.10254ZM14.2593 2.75391C13.5804 2.75422 13.0298 3.30701 13.0298 3.98828L13.0308 6.9668C13.0309 7.28233 13.1502 7.56973 13.3491 7.79102C13.355 7.79752 13.3592 7.8058 13.3647 7.8125L16.1704 10.6289C16.1731 10.6315 16.1765 10.634 16.1792 10.6367C16.4041 10.8675 16.7141 11.0087 17.0571 11.0088H20.0229C20.7019 11.0088 21.2524 10.4561 21.2524 9.77441C21.2523 9.09305 20.7026 8.54125 20.0239 8.54102H19.0054C18.7028 8.54102 18.429 8.35765 18.313 8.07715C18.1972 7.79638 18.261 7.47172 18.4751 7.25684L19.4097 6.31934L19.4956 6.22461C19.8951 5.73261 19.8663 5.00626 19.4097 4.54785L19.3794 4.51758L19.2847 4.43164C18.7947 4.03043 18.0715 4.05839 17.6147 4.5166L16.7671 5.36816C16.5533 5.58271 16.232 5.64689 15.9526 5.53125C15.6732 5.41517 15.4892 5.14148 15.4888 4.83789V3.9873C15.4885 3.34856 15.0048 2.82311 14.3852 2.75977L14.2593 2.75391Z" clip-rule="evenodd"></path>
</svg>
